<mxfile host="app.diagrams.net" agent="Mozilla/5.0 (Macintosh; Intel Mac OS X 10.15; rv:129.0) Gecko/20100101 Firefox/129.0" version="24.7.7">
  <diagram name="Page-1" id="12e1b939-464a-85fe-373e-61e167be1490">
    <mxGraphModel dx="1481" dy="2051" grid="1" gridSize="10" guides="1" tooltips="1" connect="1" arrows="1" fold="1" page="1" pageScale="1.5" pageWidth="1169" pageHeight="826" background="none" math="0" shadow="0">
      <root>
        <mxCell id="0" />
        <mxCell id="1" parent="0" />
        <mxCell id="UDk5cR4JKh6qe-NH-JdE-115" value="" style="rounded=0;whiteSpace=wrap;html=1;fillColor=default;strokeColor=none;" vertex="1" parent="1">
          <mxGeometry x="950" y="470" width="690" height="390" as="geometry" />
        </mxCell>
        <mxCell id="UDk5cR4JKh6qe-NH-JdE-111" value="" style="rounded=0;whiteSpace=wrap;html=1;fillColor=default;strokeColor=none;" vertex="1" parent="1">
          <mxGeometry x="120" y="420" width="670" height="320" as="geometry" />
        </mxCell>
        <mxCell id="60da8b9f42644d3a-31" value="" style="whiteSpace=wrap;html=1;rounded=1;shadow=0;strokeWidth=6;fontSize=20;align=center;fillColor=#FE9900;strokeColor=#FFFFFF;" parent="1" vertex="1">
          <mxGeometry x="310" y="420" width="280" height="320" as="geometry" />
        </mxCell>
        <mxCell id="UDk5cR4JKh6qe-NH-JdE-102" value="&lt;div&gt;Issuer&lt;/div&gt;&lt;div&gt;backend&lt;br&gt;&lt;/div&gt;&lt;div&gt;C&lt;br&gt;&lt;/div&gt;" style="ellipse;whiteSpace=wrap;html=1;rounded=0;shadow=0;strokeWidth=6;fontSize=14;align=center;fillColor=#397DAA;strokeColor=#FFFFFF;fontColor=#FFFFFF;" vertex="1" parent="1">
          <mxGeometry x="1497" y="716.93" width="115" height="100" as="geometry" />
        </mxCell>
        <mxCell id="60da8b9f42644d3a-22" value="&lt;div&gt;Card&lt;/div&gt;&lt;div&gt;Network&lt;/div&gt;" style="ellipse;whiteSpace=wrap;html=1;rounded=0;shadow=0;strokeWidth=6;fontSize=14;align=center;fillColor=#397DAA;strokeColor=#FFFFFF;fontColor=#FFFFFF;" parent="1" vertex="1">
          <mxGeometry x="130" y="548.61" width="115" height="100" as="geometry" />
        </mxCell>
        <mxCell id="60da8b9f42644d3a-36" value="CUSTOMERS" style="ellipse;whiteSpace=wrap;html=1;rounded=0;shadow=0;strokeWidth=6;fontSize=14;align=center;fillColor=#68B85C;strokeColor=#FFFFFF;fontColor=#FFFFFF;" parent="1" vertex="1">
          <mxGeometry x="470" y="5" width="115" height="115" as="geometry" />
        </mxCell>
        <mxCell id="60da8b9f42644d3a-38" value="PROMOTERS" style="ellipse;whiteSpace=wrap;html=1;rounded=0;shadow=0;strokeWidth=6;fontSize=14;align=center;fillColor=#BF639A;strokeColor=#FFFFFF;fontColor=#FFFFFF;" parent="1" vertex="1">
          <mxGeometry x="810" y="-30" width="115" height="115" as="geometry" />
        </mxCell>
        <mxCell id="UDk5cR4JKh6qe-NH-JdE-1" value="" style="group" vertex="1" connectable="0" parent="1">
          <mxGeometry x="914" y="-80" width="840" height="430" as="geometry" />
        </mxCell>
        <mxCell id="60da8b9f42644d3a-2" value="" style="whiteSpace=wrap;html=1;rounded=1;shadow=0;strokeWidth=8;fontSize=20;align=center;fillColor=#FED217;strokeColor=#FFFFFF;" parent="UDk5cR4JKh6qe-NH-JdE-1" vertex="1">
          <mxGeometry width="280" height="430" as="geometry" />
        </mxCell>
        <mxCell id="UDk5cR4JKh6qe-NH-JdE-16" value="" style="edgeStyle=orthogonalEdgeStyle;rounded=0;orthogonalLoop=1;jettySize=auto;html=1;" edge="1" parent="UDk5cR4JKh6qe-NH-JdE-1" source="60da8b9f42644d3a-3" target="60da8b9f42644d3a-9">
          <mxGeometry relative="1" as="geometry" />
        </mxCell>
        <mxCell id="60da8b9f42644d3a-3" value="ATTRACT" style="text;html=1;strokeColor=none;fillColor=none;align=center;verticalAlign=middle;whiteSpace=wrap;rounded=0;shadow=0;fontSize=27;fontColor=#FFFFFF;fontStyle=1" parent="UDk5cR4JKh6qe-NH-JdE-1" vertex="1">
          <mxGeometry y="20" width="280" height="60" as="geometry" />
        </mxCell>
        <mxCell id="60da8b9f42644d3a-4" value="Blog&lt;div&gt;Keywords&lt;/div&gt;&lt;div&gt;Social Media&lt;/div&gt;" style="text;html=1;strokeColor=none;fillColor=none;align=center;verticalAlign=middle;whiteSpace=wrap;rounded=0;shadow=0;fontSize=14;fontColor=#FFFFFF;" parent="UDk5cR4JKh6qe-NH-JdE-1" vertex="1">
          <mxGeometry y="320" width="280" height="90" as="geometry" />
        </mxCell>
        <mxCell id="60da8b9f42644d3a-6" value="" style="line;strokeWidth=2;html=1;rounded=0;shadow=0;fontSize=27;align=center;fillColor=none;strokeColor=#FFFFFF;" parent="UDk5cR4JKh6qe-NH-JdE-1" vertex="1">
          <mxGeometry x="20" y="80" width="240" height="10" as="geometry" />
        </mxCell>
        <mxCell id="60da8b9f42644d3a-7" value="" style="line;strokeWidth=2;html=1;rounded=0;shadow=0;fontSize=27;align=center;fillColor=none;strokeColor=#FFFFFF;" parent="UDk5cR4JKh6qe-NH-JdE-1" vertex="1">
          <mxGeometry x="20" y="300" width="240" height="10" as="geometry" />
        </mxCell>
        <mxCell id="60da8b9f42644d3a-9" value="" style="html=1;shadow=0;dashed=0;align=center;verticalAlign=middle;shape=mxgraph.arrows2.stylisedArrow;dy=0.6;dx=40;notch=15;feather=0.4;rounded=0;strokeWidth=1;fontSize=27;strokeColor=none;fillColor=#fff2cc;" parent="UDk5cR4JKh6qe-NH-JdE-1" vertex="1">
          <mxGeometry x="90" y="168" width="100" height="60" as="geometry" />
        </mxCell>
        <mxCell id="60da8b9f42644d3a-17" value="" style="whiteSpace=wrap;html=1;rounded=1;shadow=0;strokeWidth=8;fontSize=20;align=center;fillColor=#FFC001;strokeColor=#FFFFFF;" parent="UDk5cR4JKh6qe-NH-JdE-1" vertex="1">
          <mxGeometry x="280" width="280" height="430" as="geometry" />
        </mxCell>
        <mxCell id="60da8b9f42644d3a-18" value="CONVERT" style="text;html=1;strokeColor=none;fillColor=none;align=center;verticalAlign=middle;whiteSpace=wrap;rounded=0;shadow=0;fontSize=27;fontColor=#FFFFFF;fontStyle=1" parent="UDk5cR4JKh6qe-NH-JdE-1" vertex="1">
          <mxGeometry x="280" y="20" width="280" height="60" as="geometry" />
        </mxCell>
        <mxCell id="60da8b9f42644d3a-19" value="Forms&lt;div&gt;Calls-to-Action&lt;/div&gt;&lt;div&gt;Landing Pages&lt;/div&gt;" style="text;html=1;strokeColor=none;fillColor=none;align=center;verticalAlign=middle;whiteSpace=wrap;rounded=0;shadow=0;fontSize=14;fontColor=#FFFFFF;" parent="UDk5cR4JKh6qe-NH-JdE-1" vertex="1">
          <mxGeometry x="280" y="320" width="280" height="90" as="geometry" />
        </mxCell>
        <mxCell id="60da8b9f42644d3a-20" value="" style="line;strokeWidth=2;html=1;rounded=0;shadow=0;fontSize=27;align=center;fillColor=none;strokeColor=#FFFFFF;" parent="UDk5cR4JKh6qe-NH-JdE-1" vertex="1">
          <mxGeometry x="300" y="80" width="240" height="10" as="geometry" />
        </mxCell>
        <mxCell id="60da8b9f42644d3a-21" value="" style="line;strokeWidth=2;html=1;rounded=0;shadow=0;fontSize=27;align=center;fillColor=none;strokeColor=#FFFFFF;" parent="UDk5cR4JKh6qe-NH-JdE-1" vertex="1">
          <mxGeometry x="300" y="300" width="240" height="10" as="geometry" />
        </mxCell>
        <mxCell id="60da8b9f42644d3a-23" value="" style="html=1;shadow=0;dashed=0;align=center;verticalAlign=middle;shape=mxgraph.arrows2.stylisedArrow;dy=0.6;dx=40;notch=15;feather=0.4;rounded=0;strokeWidth=1;fontSize=27;strokeColor=none;fillColor=#fff2cc;" parent="UDk5cR4JKh6qe-NH-JdE-1" vertex="1">
          <mxGeometry x="370" y="168" width="100" height="60" as="geometry" />
        </mxCell>
        <mxCell id="60da8b9f42644d3a-24" value="" style="whiteSpace=wrap;html=1;rounded=1;shadow=0;strokeWidth=8;fontSize=20;align=center;fillColor=#FFB001;strokeColor=#FFFFFF;" parent="UDk5cR4JKh6qe-NH-JdE-1" vertex="1">
          <mxGeometry x="560" width="280" height="430" as="geometry" />
        </mxCell>
        <mxCell id="60da8b9f42644d3a-25" value="CLOSE" style="text;html=1;strokeColor=none;fillColor=none;align=center;verticalAlign=middle;whiteSpace=wrap;rounded=0;shadow=0;fontSize=27;fontColor=#FFFFFF;fontStyle=1" parent="UDk5cR4JKh6qe-NH-JdE-1" vertex="1">
          <mxGeometry x="560" y="20" width="280" height="60" as="geometry" />
        </mxCell>
        <mxCell id="60da8b9f42644d3a-26" value="Email&lt;div&gt;Signals&lt;/div&gt;&lt;div&gt;Workflows&lt;/div&gt;" style="text;html=1;strokeColor=none;fillColor=none;align=center;verticalAlign=middle;whiteSpace=wrap;rounded=0;shadow=0;fontSize=14;fontColor=#FFFFFF;" parent="UDk5cR4JKh6qe-NH-JdE-1" vertex="1">
          <mxGeometry x="560" y="320" width="280" height="90" as="geometry" />
        </mxCell>
        <mxCell id="60da8b9f42644d3a-27" value="" style="line;strokeWidth=2;html=1;rounded=0;shadow=0;fontSize=27;align=center;fillColor=none;strokeColor=#FFFFFF;" parent="UDk5cR4JKh6qe-NH-JdE-1" vertex="1">
          <mxGeometry x="580" y="80" width="240" height="10" as="geometry" />
        </mxCell>
        <mxCell id="60da8b9f42644d3a-28" value="" style="line;strokeWidth=2;html=1;rounded=0;shadow=0;fontSize=27;align=center;fillColor=none;strokeColor=#FFFFFF;" parent="UDk5cR4JKh6qe-NH-JdE-1" vertex="1">
          <mxGeometry x="580" y="300" width="240" height="10" as="geometry" />
        </mxCell>
        <mxCell id="60da8b9f42644d3a-30" value="" style="html=1;shadow=0;dashed=0;align=center;verticalAlign=middle;shape=mxgraph.arrows2.stylisedArrow;dy=0.6;dx=40;notch=15;feather=0.4;rounded=0;strokeWidth=1;fontSize=27;strokeColor=none;fillColor=#fff2cc;" parent="UDk5cR4JKh6qe-NH-JdE-1" vertex="1">
          <mxGeometry x="650" y="168" width="100" height="60" as="geometry" />
        </mxCell>
        <mxCell id="UDk5cR4JKh6qe-NH-JdE-56" value="&lt;font color=&quot;#4d4d4d&quot;&gt;&lt;b&gt;ISO-8583&lt;/b&gt;&lt;/font&gt;" style="text;html=1;align=center;verticalAlign=middle;resizable=0;points=[];autosize=1;strokeColor=none;fillColor=none;" vertex="1" parent="1">
          <mxGeometry x="239" y="564" width="70" height="30" as="geometry" />
        </mxCell>
        <mxCell id="UDk5cR4JKh6qe-NH-JdE-74" value="&lt;div&gt;Issuer&lt;/div&gt;&lt;div&gt;backend&lt;br&gt;&lt;/div&gt;" style="ellipse;whiteSpace=wrap;html=1;rounded=0;shadow=0;strokeWidth=6;fontSize=14;align=center;fillColor=#397DAA;strokeColor=#FFFFFF;fontColor=#FFFFFF;" vertex="1" parent="1">
          <mxGeometry x="660" y="551" width="115" height="100" as="geometry" />
        </mxCell>
        <mxCell id="60da8b9f42644d3a-32" value="ISO/Bridge" style="text;html=1;strokeColor=none;fillColor=none;align=center;verticalAlign=middle;whiteSpace=wrap;rounded=0;shadow=0;fontSize=20;fontColor=#FFFFFF;fontStyle=1" parent="1" vertex="1">
          <mxGeometry x="290" y="425.00488372093025" width="320" height="48.83720930232558" as="geometry" />
        </mxCell>
        <mxCell id="60da8b9f42644d3a-34" value="" style="line;strokeWidth=2;html=1;rounded=0;shadow=0;fontSize=27;align=center;fillColor=none;strokeColor=#FFFFFF;" parent="1" vertex="1">
          <mxGeometry x="312.85714285714283" y="464.07209302325583" width="274.2857142857143" height="9.767441860465118" as="geometry" />
        </mxCell>
        <mxCell id="UDk5cR4JKh6qe-NH-JdE-15" value="&lt;font face=&quot;Courier New&quot; style=&quot;font-size: 18px;&quot;&gt;TransactionManager&lt;/font&gt;" style="text;html=1;strokeColor=none;fillColor=none;align=center;verticalAlign=middle;whiteSpace=wrap;rounded=0;shadow=0;fontSize=27;fontColor=#FFFFFF;fontStyle=1" vertex="1" parent="1">
          <mxGeometry x="356.43" y="473.13953488372096" width="187.14" height="29.30232558139535" as="geometry" />
        </mxCell>
        <mxCell id="UDk5cR4JKh6qe-NH-JdE-55" value="" style="shape=flexArrow;endArrow=classic;html=1;rounded=0;fillColor=#9999FF;" edge="1" parent="1">
          <mxGeometry width="50" height="50" relative="1" as="geometry">
            <mxPoint x="240" y="600.5" as="sourcePoint" />
            <mxPoint x="330" y="601" as="targetPoint" />
          </mxGeometry>
        </mxCell>
        <mxCell id="UDk5cR4JKh6qe-NH-JdE-75" value="&lt;div&gt;&lt;font color=&quot;#4d4d4d&quot;&gt;&lt;b&gt;XML&lt;/b&gt;&lt;/font&gt;&lt;/div&gt;&lt;div&gt;&lt;font color=&quot;#4d4d4d&quot;&gt;&lt;b&gt;HTTP+JSON&lt;/b&gt;&lt;/font&gt;&lt;/div&gt;&lt;div&gt;&lt;font color=&quot;#4d4d4d&quot;&gt;&lt;b&gt;custom API&lt;br&gt;&lt;/b&gt;&lt;/font&gt;&lt;/div&gt;" style="text;html=1;align=center;verticalAlign=middle;resizable=0;points=[];autosize=1;strokeColor=none;fillColor=none;" vertex="1" parent="1">
          <mxGeometry x="578" y="535" width="90" height="60" as="geometry" />
        </mxCell>
        <mxCell id="UDk5cR4JKh6qe-NH-JdE-73" value="" style="shape=flexArrow;endArrow=classic;html=1;rounded=0;fillColor=#9999FF;" edge="1" parent="1">
          <mxGeometry width="50" height="50" relative="1" as="geometry">
            <mxPoint x="580" y="600.33" as="sourcePoint" />
            <mxPoint x="670" y="600.83" as="targetPoint" />
          </mxGeometry>
        </mxCell>
        <mxCell id="UDk5cR4JKh6qe-NH-JdE-96" value="&lt;div&gt;Issuer&lt;/div&gt;&lt;div&gt;backend&lt;br&gt;&lt;/div&gt;&lt;div&gt;B&lt;br&gt;&lt;/div&gt;" style="ellipse;whiteSpace=wrap;html=1;rounded=0;shadow=0;strokeWidth=6;fontSize=14;align=center;fillColor=#397DAA;strokeColor=#FFFFFF;fontColor=#FFFFFF;" vertex="1" parent="1">
          <mxGeometry x="1500" y="600" width="115" height="100" as="geometry" />
        </mxCell>
        <mxCell id="UDk5cR4JKh6qe-NH-JdE-97" value="&lt;div&gt;&lt;b&gt;XML&lt;/b&gt;&lt;/div&gt;&lt;div&gt;&lt;b&gt;HTTP+JSON&lt;/b&gt;&lt;/div&gt;" style="text;html=1;align=center;verticalAlign=middle;resizable=1;points=[];autosize=1;strokeColor=none;fillColor=none;movable=1;rotatable=1;deletable=1;editable=1;locked=0;connectable=1;fontColor=#4D4D4D;" vertex="1" parent="1">
          <mxGeometry x="1410" y="600" width="90" height="40" as="geometry" />
        </mxCell>
        <mxCell id="UDk5cR4JKh6qe-NH-JdE-99" value="&lt;div&gt;Issuer&lt;/div&gt;&lt;div&gt;backend&lt;br&gt;&lt;/div&gt;&lt;div&gt;A&lt;br&gt;&lt;/div&gt;" style="ellipse;whiteSpace=wrap;html=1;rounded=0;shadow=0;strokeWidth=6;fontSize=14;align=center;fillColor=#397DAA;strokeColor=#FFFFFF;fontColor=#FFFFFF;" vertex="1" parent="1">
          <mxGeometry x="1500" y="475.78999999999996" width="115" height="100" as="geometry" />
        </mxCell>
        <mxCell id="UDk5cR4JKh6qe-NH-JdE-5" value="" style="rounded=0;whiteSpace=wrap;html=1;shadow=0;strokeColor=#006EAF;fillColor=#66B2FF;fontColor=#ffffff;gradientColor=#0066CC;gradientDirection=south;" vertex="1" parent="1">
          <mxGeometry x="380" y="503.80674418604656" width="140" height="208.17" as="geometry" />
        </mxCell>
        <mxCell id="UDk5cR4JKh6qe-NH-JdE-6" value="&lt;div style=&quot;font-size: 13px;&quot;&gt;Participant - 1&lt;br style=&quot;font-size: 13px;&quot;&gt;&lt;/div&gt;" style="rounded=1;whiteSpace=wrap;html=1;shadow=0;strokeColor=#6c8ebf;fillColor=#dae8fc;fontSize=13;" vertex="1" parent="1">
          <mxGeometry x="397.0924882629108" y="516.5024337479718" width="102.53521126760565" height="27.92743640455569" as="geometry" />
        </mxCell>
        <mxCell id="UDk5cR4JKh6qe-NH-JdE-7" value="&lt;div style=&quot;font-size: 13px;&quot;&gt;Participant ...&lt;br style=&quot;font-size: 13px;&quot;&gt;&lt;/div&gt;" style="rounded=1;whiteSpace=wrap;html=1;shadow=0;strokeColor=#6c8ebf;fillColor=#dae8fc;fontSize=13;" vertex="1" parent="1">
          <mxGeometry x="397.0924882629108" y="552.953323743198" width="102.53521126760565" height="27.92743640455569" as="geometry" />
        </mxCell>
        <mxCell id="UDk5cR4JKh6qe-NH-JdE-10" value="&lt;div style=&quot;font-size: 13px;&quot;&gt;Participant ...&lt;/div&gt;" style="rounded=1;whiteSpace=wrap;html=1;shadow=0;strokeColor=#6c8ebf;fillColor=#dae8fc;fontSize=13;" vertex="1" parent="1">
          <mxGeometry x="397.08910798122065" y="629.9967029971024" width="102.53521126760565" height="27.92743640455569" as="geometry" />
        </mxCell>
        <mxCell id="UDk5cR4JKh6qe-NH-JdE-11" value="QueryHost" style="rounded=1;whiteSpace=wrap;html=1;shadow=0;strokeColor=#6c8ebf;fillColor=#dae8fc;fontSize=13;" vertex="1" parent="1">
          <mxGeometry x="397.08910798122065" y="590.9989678815052" width="102.53521126760565" height="27.92743640455569" as="geometry" />
        </mxCell>
        <mxCell id="UDk5cR4JKh6qe-NH-JdE-12" value="&lt;div style=&quot;font-size: 13px;&quot;&gt;Participant - N&lt;/div&gt;" style="rounded=1;whiteSpace=wrap;html=1;shadow=0;strokeColor=#6c8ebf;fillColor=#dae8fc;fontSize=13;" vertex="1" parent="1">
          <mxGeometry x="397.08910798122065" y="670.0026594862246" width="102.53521126760565" height="27.92743640455569" as="geometry" />
        </mxCell>
        <mxCell id="UDk5cR4JKh6qe-NH-JdE-121" value="&lt;div&gt;&lt;b&gt;custom API&lt;/b&gt;&lt;/div&gt;&lt;div&gt;&lt;b&gt;ISO-8583&lt;br&gt;&lt;/b&gt;&lt;/div&gt;" style="text;html=1;align=center;verticalAlign=middle;resizable=1;points=[];autosize=1;strokeColor=none;fillColor=none;movable=1;rotatable=1;deletable=1;editable=1;locked=0;connectable=1;fontColor=#4D4D4D;" vertex="1" parent="1">
          <mxGeometry x="1410" y="657.61" width="90" height="40" as="geometry" />
        </mxCell>
        <mxCell id="UDk5cR4JKh6qe-NH-JdE-126" value="" style="rounded=0;whiteSpace=wrap;html=1;fillColor=default;strokeColor=none;" vertex="1" parent="1">
          <mxGeometry x="113.36" y="782.95" width="670" height="320" as="geometry" />
        </mxCell>
        <mxCell id="UDk5cR4JKh6qe-NH-JdE-127" value="" style="whiteSpace=wrap;html=1;rounded=1;shadow=0;strokeWidth=6;fontSize=20;align=center;fillColor=#FE9900;strokeColor=#FFFFFF;" vertex="1" parent="1">
          <mxGeometry x="303.36" y="782.95" width="280" height="320" as="geometry" />
        </mxCell>
        <mxCell id="UDk5cR4JKh6qe-NH-JdE-128" value="&lt;div&gt;Card&lt;/div&gt;&lt;div&gt;Network&lt;/div&gt;" style="ellipse;whiteSpace=wrap;html=1;rounded=0;shadow=0;strokeWidth=6;fontSize=14;align=center;fillColor=#397DAA;strokeColor=#FFFFFF;fontColor=#FFFFFF;" vertex="1" parent="1">
          <mxGeometry x="123.36" y="911.56" width="115" height="100" as="geometry" />
        </mxCell>
        <mxCell id="UDk5cR4JKh6qe-NH-JdE-129" value="&lt;font color=&quot;#4d4d4d&quot;&gt;&lt;b&gt;ISO-8583&lt;/b&gt;&lt;/font&gt;" style="text;html=1;align=center;verticalAlign=middle;resizable=0;points=[];autosize=1;strokeColor=none;fillColor=none;" vertex="1" parent="1">
          <mxGeometry x="232.36" y="926.95" width="70" height="30" as="geometry" />
        </mxCell>
        <mxCell id="UDk5cR4JKh6qe-NH-JdE-130" value="&lt;div&gt;Acquirer&lt;/div&gt;&lt;div&gt;backend&lt;br&gt;&lt;/div&gt;" style="ellipse;whiteSpace=wrap;html=1;rounded=0;shadow=0;strokeWidth=6;fontSize=14;align=center;fillColor=#397DAA;strokeColor=#FFFFFF;fontColor=#FFFFFF;" vertex="1" parent="1">
          <mxGeometry x="653.36" y="913.95" width="115" height="100" as="geometry" />
        </mxCell>
        <mxCell id="UDk5cR4JKh6qe-NH-JdE-131" value="ISO/Bridge" style="text;html=1;strokeColor=none;fillColor=none;align=center;verticalAlign=middle;whiteSpace=wrap;rounded=0;shadow=0;fontSize=20;fontColor=#FFFFFF;fontStyle=1" vertex="1" parent="1">
          <mxGeometry x="283.36" y="787.9548837209302" width="320" height="48.83720930232558" as="geometry" />
        </mxCell>
        <mxCell id="UDk5cR4JKh6qe-NH-JdE-132" value="" style="line;strokeWidth=2;html=1;rounded=0;shadow=0;fontSize=27;align=center;fillColor=none;strokeColor=#FFFFFF;" vertex="1" parent="1">
          <mxGeometry x="306.21714285714285" y="827.0220930232558" width="274.2857142857143" height="9.767441860465118" as="geometry" />
        </mxCell>
        <mxCell id="UDk5cR4JKh6qe-NH-JdE-133" value="&lt;font face=&quot;Courier New&quot; style=&quot;font-size: 18px;&quot;&gt;TransactionManager&lt;/font&gt;" style="text;html=1;strokeColor=none;fillColor=none;align=center;verticalAlign=middle;whiteSpace=wrap;rounded=0;shadow=0;fontSize=27;fontColor=#FFFFFF;fontStyle=1" vertex="1" parent="1">
          <mxGeometry x="349.79" y="836.089534883721" width="187.14" height="29.30232558139535" as="geometry" />
        </mxCell>
        <mxCell id="UDk5cR4JKh6qe-NH-JdE-134" value="" style="shape=flexArrow;endArrow=classic;html=1;rounded=0;fillColor=#9999FF;" edge="1" parent="1">
          <mxGeometry width="50" height="50" relative="1" as="geometry">
            <mxPoint x="323.36" y="963.95" as="sourcePoint" />
            <mxPoint x="233.36" y="963.45" as="targetPoint" />
          </mxGeometry>
        </mxCell>
        <mxCell id="UDk5cR4JKh6qe-NH-JdE-135" value="&lt;div&gt;&lt;font color=&quot;#4d4d4d&quot;&gt;&lt;b&gt;XML&lt;/b&gt;&lt;/font&gt;&lt;/div&gt;&lt;div&gt;&lt;font color=&quot;#4d4d4d&quot;&gt;&lt;b&gt;HTTP+JSON&lt;/b&gt;&lt;/font&gt;&lt;/div&gt;&lt;div&gt;&lt;font color=&quot;#4d4d4d&quot;&gt;&lt;b&gt;custom API&lt;br&gt;&lt;/b&gt;&lt;/font&gt;&lt;/div&gt;" style="text;html=1;align=center;verticalAlign=middle;resizable=0;points=[];autosize=1;strokeColor=none;fillColor=none;" vertex="1" parent="1">
          <mxGeometry x="571.36" y="897.95" width="90" height="60" as="geometry" />
        </mxCell>
        <mxCell id="UDk5cR4JKh6qe-NH-JdE-136" value="" style="shape=flexArrow;endArrow=classic;html=1;rounded=0;fillColor=#9999FF;" edge="1" parent="1">
          <mxGeometry width="50" height="50" relative="1" as="geometry">
            <mxPoint x="663.36" y="963.78" as="sourcePoint" />
            <mxPoint x="573.36" y="963.28" as="targetPoint" />
          </mxGeometry>
        </mxCell>
        <mxCell id="UDk5cR4JKh6qe-NH-JdE-137" value="" style="rounded=0;whiteSpace=wrap;html=1;shadow=0;strokeColor=#006EAF;fillColor=#66B2FF;fontColor=#ffffff;gradientColor=#0066CC;gradientDirection=south;" vertex="1" parent="1">
          <mxGeometry x="373.36" y="866.7567441860465" width="140" height="208.17" as="geometry" />
        </mxCell>
        <mxCell id="UDk5cR4JKh6qe-NH-JdE-138" value="&lt;div style=&quot;font-size: 13px;&quot;&gt;Participant - 1&lt;br style=&quot;font-size: 13px;&quot;&gt;&lt;/div&gt;" style="rounded=1;whiteSpace=wrap;html=1;shadow=0;strokeColor=#6c8ebf;fillColor=#dae8fc;fontSize=13;" vertex="1" parent="1">
          <mxGeometry x="390.45248826291083" y="879.4524337479718" width="102.53521126760565" height="27.92743640455569" as="geometry" />
        </mxCell>
        <mxCell id="UDk5cR4JKh6qe-NH-JdE-139" value="&lt;div style=&quot;font-size: 13px;&quot;&gt;Participant ...&lt;br style=&quot;font-size: 13px;&quot;&gt;&lt;/div&gt;" style="rounded=1;whiteSpace=wrap;html=1;shadow=0;strokeColor=#6c8ebf;fillColor=#dae8fc;fontSize=13;" vertex="1" parent="1">
          <mxGeometry x="390.45248826291083" y="915.9033237431979" width="102.53521126760565" height="27.92743640455569" as="geometry" />
        </mxCell>
        <mxCell id="UDk5cR4JKh6qe-NH-JdE-140" value="&lt;div style=&quot;font-size: 13px;&quot;&gt;Participant ...&lt;/div&gt;" style="rounded=1;whiteSpace=wrap;html=1;shadow=0;strokeColor=#6c8ebf;fillColor=#dae8fc;fontSize=13;" vertex="1" parent="1">
          <mxGeometry x="390.44910798122066" y="992.9467029971024" width="102.53521126760565" height="27.92743640455569" as="geometry" />
        </mxCell>
        <mxCell id="UDk5cR4JKh6qe-NH-JdE-144" value="" style="whiteSpace=wrap;html=1;rounded=1;shadow=0;strokeWidth=6;fontSize=20;align=center;fillColor=#FE9900;strokeColor=#FFFFFF;" vertex="1" parent="1">
          <mxGeometry x="1120" y="473.84" width="280" height="376.16" as="geometry" />
        </mxCell>
        <mxCell id="UDk5cR4JKh6qe-NH-JdE-141" value="QueryHost" style="rounded=1;whiteSpace=wrap;html=1;shadow=0;strokeColor=#6c8ebf;fillColor=#dae8fc;fontSize=13;" vertex="1" parent="1">
          <mxGeometry x="390.44910798122066" y="953.9489678815053" width="102.53521126760565" height="27.92743640455569" as="geometry" />
        </mxCell>
        <mxCell id="UDk5cR4JKh6qe-NH-JdE-142" value="&lt;div style=&quot;font-size: 13px;&quot;&gt;Participant - N&lt;/div&gt;" style="rounded=1;whiteSpace=wrap;html=1;shadow=0;strokeColor=#6c8ebf;fillColor=#dae8fc;fontSize=13;" vertex="1" parent="1">
          <mxGeometry x="390.44910798122066" y="1032.9526594862245" width="102.53521126760565" height="27.92743640455569" as="geometry" />
        </mxCell>
        <mxCell id="UDk5cR4JKh6qe-NH-JdE-145" value="ISO/Bridge" style="text;html=1;strokeColor=none;fillColor=none;align=center;verticalAlign=middle;whiteSpace=wrap;rounded=0;shadow=0;fontSize=20;fontColor=#FFFFFF;fontStyle=1" vertex="1" parent="1">
          <mxGeometry x="1100" y="478.8448837209303" width="320" height="48.83720930232558" as="geometry" />
        </mxCell>
        <mxCell id="UDk5cR4JKh6qe-NH-JdE-146" value="&lt;font face=&quot;Courier New&quot; style=&quot;font-size: 18px;&quot;&gt;TransactionManager&lt;/font&gt;" style="text;html=1;strokeColor=none;fillColor=none;align=center;verticalAlign=middle;whiteSpace=wrap;rounded=0;shadow=0;fontSize=27;fontColor=#FFFFFF;fontStyle=1" vertex="1" parent="1">
          <mxGeometry x="1166.43" y="526.9795348837209" width="187.14" height="29.30232558139535" as="geometry" />
        </mxCell>
        <mxCell id="UDk5cR4JKh6qe-NH-JdE-147" value="" style="line;strokeWidth=2;html=1;rounded=0;shadow=0;fontSize=27;align=center;fillColor=none;strokeColor=#FFFFFF;" vertex="1" parent="1">
          <mxGeometry x="1122.857142857143" y="517.9120930232558" width="274.2857142857143" height="9.767441860465118" as="geometry" />
        </mxCell>
        <mxCell id="UDk5cR4JKh6qe-NH-JdE-148" value="" style="group" vertex="1" connectable="0" parent="1">
          <mxGeometry x="1190" y="559.9993023255814" width="140" height="262.353488372093" as="geometry" />
        </mxCell>
        <mxCell id="UDk5cR4JKh6qe-NH-JdE-63" value="" style="rounded=0;whiteSpace=wrap;html=1;shadow=0;strokeColor=#006EAF;fillColor=#66B2FF;fontColor=#ffffff;gradientColor=#0066CC;gradientDirection=south;" vertex="1" parent="UDk5cR4JKh6qe-NH-JdE-148">
          <mxGeometry width="140" height="262.353488372093" as="geometry" />
        </mxCell>
        <mxCell id="UDk5cR4JKh6qe-NH-JdE-64" value="&lt;div style=&quot;font-size: 13px;&quot;&gt;Participant - 1&lt;br style=&quot;font-size: 13px;&quot;&gt;&lt;/div&gt;" style="rounded=1;whiteSpace=wrap;html=1;shadow=0;strokeColor=#6c8ebf;fillColor=#dae8fc;fontSize=13;" vertex="1" parent="UDk5cR4JKh6qe-NH-JdE-148">
          <mxGeometry x="17.09248826291082" y="12.69313142239048" width="102.53521126760565" height="27.92743640455569" as="geometry" />
        </mxCell>
        <mxCell id="UDk5cR4JKh6qe-NH-JdE-65" value="&lt;div style=&quot;font-size: 13px;&quot;&gt;Participant ...&lt;br style=&quot;font-size: 13px;&quot;&gt;&lt;/div&gt;" style="rounded=1;whiteSpace=wrap;html=1;shadow=0;strokeColor=#6c8ebf;fillColor=#dae8fc;fontSize=13;" vertex="1" parent="UDk5cR4JKh6qe-NH-JdE-148">
          <mxGeometry x="17.09248826291082" y="52.1440214176165" width="102.53521126760565" height="27.92743640455569" as="geometry" />
        </mxCell>
        <mxCell id="UDk5cR4JKh6qe-NH-JdE-66" value="&lt;b&gt;&lt;font style=&quot;font-size: 13px;&quot;&gt;SelectDestination&lt;/font&gt;&lt;/b&gt;" style="rounded=1;whiteSpace=wrap;html=1;shadow=0;strokeColor=#3333FF;fillColor=#00CCCC;fontSize=13;" vertex="1" parent="UDk5cR4JKh6qe-NH-JdE-148">
          <mxGeometry x="8.090000000000146" y="88.75744186046506" width="122.91" height="31.41" as="geometry" />
        </mxCell>
        <mxCell id="UDk5cR4JKh6qe-NH-JdE-68" value="QueryHost" style="rounded=1;whiteSpace=wrap;html=1;shadow=0;strokeColor=#6c8ebf;fillColor=#dae8fc;fontSize=13;" vertex="1" parent="UDk5cR4JKh6qe-NH-JdE-148">
          <mxGeometry x="18.72910798122075" y="131.82966555592384" width="102.53521126760565" height="27.92743640455569" as="geometry" />
        </mxCell>
        <mxCell id="UDk5cR4JKh6qe-NH-JdE-67" value="&lt;div style=&quot;font-size: 13px;&quot;&gt;Participant ...&lt;/div&gt;" style="rounded=1;whiteSpace=wrap;html=1;shadow=0;strokeColor=#6c8ebf;fillColor=#dae8fc;fontSize=13;" vertex="1" parent="UDk5cR4JKh6qe-NH-JdE-148">
          <mxGeometry x="18.72910798122075" y="175.49740067152095" width="102.53521126760565" height="27.92743640455569" as="geometry" />
        </mxCell>
        <mxCell id="UDk5cR4JKh6qe-NH-JdE-69" value="&lt;div style=&quot;font-size: 13px;&quot;&gt;Participant - N&lt;/div&gt;" style="rounded=1;whiteSpace=wrap;html=1;shadow=0;strokeColor=#6c8ebf;fillColor=#dae8fc;fontSize=13;" vertex="1" parent="UDk5cR4JKh6qe-NH-JdE-148">
          <mxGeometry x="17.72910798122075" y="218.68335716064314" width="102.53521126760565" height="27.92743640455569" as="geometry" />
        </mxCell>
        <mxCell id="UDk5cR4JKh6qe-NH-JdE-149" value="&lt;div&gt;Card&lt;/div&gt;&lt;div&gt;Network&lt;/div&gt;" style="ellipse;whiteSpace=wrap;html=1;rounded=0;shadow=0;strokeWidth=6;fontSize=14;align=center;fillColor=#397DAA;strokeColor=#FFFFFF;fontColor=#FFFFFF;" vertex="1" parent="1">
          <mxGeometry x="940" y="611.98" width="115" height="100" as="geometry" />
        </mxCell>
        <mxCell id="UDk5cR4JKh6qe-NH-JdE-150" value="&lt;font color=&quot;#4d4d4d&quot;&gt;&lt;b&gt;ISO-8583&lt;/b&gt;&lt;/font&gt;" style="text;html=1;align=center;verticalAlign=middle;resizable=0;points=[];autosize=1;strokeColor=none;fillColor=none;" vertex="1" parent="1">
          <mxGeometry x="1049" y="627.37" width="70" height="30" as="geometry" />
        </mxCell>
        <mxCell id="UDk5cR4JKh6qe-NH-JdE-151" value="" style="shape=flexArrow;endArrow=classic;html=1;rounded=0;fillColor=#9999FF;" edge="1" parent="1">
          <mxGeometry width="50" height="50" relative="1" as="geometry">
            <mxPoint x="1050" y="663.87" as="sourcePoint" />
            <mxPoint x="1140" y="664.37" as="targetPoint" />
          </mxGeometry>
        </mxCell>
        <mxCell id="UDk5cR4JKh6qe-NH-JdE-105" value="" style="shape=flexArrow;endArrow=classic;html=1;rounded=0;fillColor=#9999FF;startSize=6;width=8.461538461538462;endSize=4.4884615384615385;endWidth=17.514792899408285;" edge="1" parent="1">
          <mxGeometry width="50" height="50" relative="1" as="geometry">
            <mxPoint x="1389" y="676" as="sourcePoint" />
            <mxPoint x="1506" y="761" as="targetPoint" />
          </mxGeometry>
        </mxCell>
        <mxCell id="UDk5cR4JKh6qe-NH-JdE-119" value="" style="shape=flexArrow;endArrow=classic;html=1;rounded=0;fillColor=#9999FF;startSize=6;width=8.461538461538462;endSize=4.4884615384615385;endWidth=17.514792899408285;" edge="1" parent="1">
          <mxGeometry width="50" height="50" relative="1" as="geometry">
            <mxPoint x="1390" y="649.81" as="sourcePoint" />
            <mxPoint x="1509" y="650" as="targetPoint" />
          </mxGeometry>
        </mxCell>
        <mxCell id="UDk5cR4JKh6qe-NH-JdE-120" value="" style="shape=flexArrow;endArrow=classic;html=1;rounded=0;fillColor=#9999FF;startSize=6;width=8.461538461538462;endSize=4.4884615384615385;endWidth=17.514792899408285;exitX=0.964;exitY=0.415;exitDx=0;exitDy=0;exitPerimeter=0;" edge="1" parent="1" source="UDk5cR4JKh6qe-NH-JdE-144">
          <mxGeometry width="50" height="50" relative="1" as="geometry">
            <mxPoint x="1409" y="601" as="sourcePoint" />
            <mxPoint x="1509" y="531" as="targetPoint" />
          </mxGeometry>
        </mxCell>
      </root>
    </mxGraphModel>
  </diagram>
</mxfile>
